<svg xmlns="http://www.w3.org/2000/svg" width="100" height="32" viewBox="0 0 100 32" fill="none">
  <path d="M13.1067 3.82766L13.3027 2.55217C13.336 2.35207 13.2776 2.15193 13.1442 1.99768C13.015 1.84344 12.8232 1.75586 12.619 1.75586H4.87321C4.53136 1.75586 4.2437 2.00178 4.18951 2.33946L2.10925 15.4921C2.08006 15.6922 2.13426 15.8966 2.26766 16.0509C2.3969 16.2051 2.58867 16.2968 2.78877 16.2968H4.57721C4.91906 16.2968 5.20254 16.0508 5.26091 15.7132L6.0655 10.6104H10.497C10.8347 10.6104 11.1223 10.3645 11.1765 10.0268L11.36 8.91374C11.3891 8.71364 11.3349 8.50943 11.2015 8.35518C11.0681 8.19677 10.8764 8.10908 10.6721 8.10908H6.49073L7.03685 4.41554H12.4189C12.769 4.41137 13.0567 4.16951 13.1067 3.82766ZM53.7073 8.21758L53.6531 8.19661C53.1737 8.0507 52.6151 7.97168 52.0023 7.97168C51.0059 7.97168 50.2472 8.37591 49.7511 9.17633C49.2675 9.96425 49.0173 10.8523 49.0173 11.8112C49.0173 12.4157 49.1216 12.9241 49.33 13.3201C49.5468 13.7287 49.8553 13.9414 50.2472 13.9414C50.6849 13.9414 51.1893 13.6578 51.7521 13.1034C52.3024 12.5614 52.8069 11.9112 53.2404 11.1775L53.7073 8.21758ZM56.959 6.70434L55.5375 15.7256C55.4833 16.0674 55.1956 16.3094 54.8538 16.3094H53.799C53.6115 16.3094 53.4322 16.2342 53.303 16.0967C53.1737 15.9633 53.1028 15.7799 53.1112 15.5923L53.1529 14.4749L53.0278 14.6125C53.0236 14.6167 52.6193 15.0669 52.1523 15.4296C51.4561 15.9716 50.6849 16.2634 50.6015 16.2968C50.1721 16.4552 49.7094 16.5343 49.2258 16.5343C48.1627 16.5343 47.3707 16.1549 46.7912 15.3795C46.2159 14.6083 45.9282 13.5829 45.9282 12.3406C45.9282 11.6945 45.9949 11.0566 46.12 10.448C46.2492 9.8393 46.4743 9.22225 46.7953 8.60943C47.1163 8.00077 47.5207 7.45878 47.996 7.00438C48.467 6.54997 49.0924 6.17888 49.8469 5.8954C50.6015 5.61609 51.4645 5.47444 52.4025 5.47444C53.5572 5.47444 54.9038 5.62038 56.4046 5.91637C56.7756 5.9914 57.0174 6.33331 56.959 6.70434ZM64.513 5.57866C63.8043 5.74542 63.1123 6.17898 62.6537 6.51666C62.1326 6.90019 61.3864 7.71317 61.3739 7.72151L61.2488 7.85912L61.3155 6.42485C61.3238 6.23725 61.2571 6.04966 61.1237 5.91209C60.9945 5.77452 60.8111 5.69958 60.6235 5.69958H59.5604C59.2186 5.69958 58.9309 5.94133 58.8767 6.28317L57.4218 15.5088C57.3926 15.7089 57.451 15.909 57.5802 16.0633C57.7094 16.2175 57.9012 16.3051 58.1055 16.3051H59.748C60.0899 16.3051 60.3775 16.0592 60.4317 15.7215L61.1988 10.8105C61.6365 10.1935 62.2035 9.66404 62.8914 9.23048C63.4041 8.90948 63.9294 8.70105 64.4547 8.62184C64.7423 8.57599 64.9716 8.35521 65.0258 8.06756L65.3427 6.37905C65.3885 6.14976 65.3135 5.91631 65.1425 5.75372C64.9841 5.59114 64.7423 5.52864 64.513 5.57866ZM31.554 10.1978C31.554 9.58913 31.4456 9.08048 31.2371 8.68861C31.0203 8.28006 30.716 8.07163 30.3241 8.07163C29.8864 8.07163 29.3778 8.35105 28.8192 8.90967C28.2647 9.45579 27.7645 10.1018 27.3267 10.8355L26.8598 13.7914L26.9182 13.8081C27.3976 13.9582 27.9521 14.033 28.5691 14.033C29.5696 14.033 30.3283 13.6288 30.8202 12.8284C31.3038 12.0446 31.554 11.1608 31.554 10.1978ZM33.776 6.63329C34.3471 7.40453 34.6389 8.43018 34.6389 9.66833C34.6389 10.4854 34.5264 11.2857 34.3054 12.0445C34.0845 12.8032 33.7343 13.5411 33.2632 14.2414C32.7963 14.9335 32.1209 15.5005 31.2538 15.9173C30.3825 16.3384 29.3486 16.5553 28.1855 16.5553C27.7269 16.5553 27.1475 16.5095 26.4638 16.4136L26.3929 16.4053L26.2678 17.6559C26.2637 17.6684 26.2637 17.6808 26.2637 17.6974L25.901 19.8944C25.8426 20.2279 25.5591 20.4699 25.2215 20.4699H23.5914C23.3871 20.4699 23.1996 20.3823 23.0703 20.2281C22.9369 20.0738 22.8785 19.8736 22.9119 19.6693L25.038 6.28317C25.0922 5.9455 25.3799 5.70365 25.7217 5.70365H26.7764C26.964 5.70365 27.1475 5.77869 27.2767 5.91209C27.4059 6.04966 27.4768 6.23308 27.4685 6.41651L27.4268 7.55052L27.5518 7.39215C27.5644 7.37965 28.5691 6.15813 30.1074 5.67454C30.5326 5.54114 30.9411 5.47444 31.3539 5.47444C32.4002 5.47861 33.1965 5.85372 33.776 6.63329ZM71.8085 5.69958H70.5246L70.808 3.86532C70.8372 3.66522 70.7788 3.46091 70.6496 3.31083C70.5204 3.15658 70.3244 3.06901 70.1243 3.06901H68.8278C68.5235 3.06901 68.2525 3.26909 68.165 3.56508L67.5355 5.69958H66.8268C66.4849 5.69958 66.2014 5.94143 66.1472 6.2791L65.9846 7.27124C65.9555 7.47135 66.0055 7.67556 66.1431 7.8298C66.2723 7.98405 66.4641 8.07163 66.6684 8.07163H67.0977L66.3307 12.9824C66.2765 13.2909 66.2473 13.6121 66.2473 13.9498C66.2473 14.821 66.4766 15.4547 66.9518 15.8882C67.4187 16.3134 68.1316 16.5343 69.0779 16.5343C69.6449 16.5343 70.4453 16.2967 70.5412 16.2634C70.6163 16.2342 70.758 16.1885 70.7747 16.1801C70.8039 16.1676 70.833 16.155 70.8581 16.1425C71.0582 16.0341 71.1874 15.8382 71.2124 15.6173L71.3333 14.6001C71.3542 14.3875 71.2791 14.1706 71.1207 14.0247C71.0748 13.983 71.029 13.9456 70.9748 13.9123C70.9372 13.8956 70.9039 13.8788 70.8664 13.8663C70.8414 13.858 70.7788 13.8454 70.5329 13.8496C70.4745 13.8496 70.412 13.8539 70.3494 13.8539C70.2369 13.8539 70.166 13.8496 70.1285 13.8413C70.0326 13.8246 69.795 13.7746 69.6741 13.6662C69.6157 13.6162 69.4365 13.4578 69.4365 12.8742C69.4365 12.8158 69.4407 12.7283 69.4573 12.6032L70.1619 8.0759H71.6168C71.9461 8.0759 72.2338 7.84242 72.2963 7.52141L72.4881 6.52907C72.5298 6.3248 72.4756 6.11651 72.3422 5.95809C72.2129 5.79134 72.017 5.69958 71.8085 5.69958ZM45.6781 5.97886C45.5488 5.80377 45.3404 5.69958 45.1236 5.69958H43.4061C43.1017 5.69958 42.8307 5.90392 42.7432 6.19157C42.5973 6.69184 42.3221 7.26698 41.9178 7.90899C41.355 8.81363 40.8922 9.3724 40.5004 9.62253L40.4378 9.65164C40.3002 9.72251 40.0835 9.82663 39.3247 9.96003L39.2289 9.97672L40.417 2.55217C40.4462 2.35207 40.392 2.14776 40.2586 1.99768C40.1293 1.84344 39.9376 1.75158 39.7375 1.75158H38.0949C37.7531 1.75158 37.4654 1.99771 37.4112 2.33539L35.3226 15.5131C35.2893 15.7132 35.3476 15.9133 35.4769 16.0676C35.6061 16.2218 35.802 16.3135 36.0021 16.3135H37.6447C37.9865 16.3135 38.2742 16.0675 38.3284 15.7299L38.8661 12.2946H39.8959L41.3133 15.8758C41.4175 16.1426 41.6718 16.3135 41.9553 16.3135H43.7396C44.1189 16.3135 44.4316 16.0049 44.4316 15.6214C44.4316 15.5296 44.4108 15.4339 44.3732 15.3464L42.7515 11.1649L42.7849 11.1358C43.4561 10.5313 44.1439 9.67247 44.8318 8.59274C45.2779 7.89237 45.5947 7.217 45.7823 6.59584C45.849 6.37906 45.8073 6.15395 45.6781 5.97886ZM21.8947 4.79069C22.5784 4.79069 23.0912 4.61559 23.4163 4.26124C23.7457 3.90272 23.9083 3.46092 23.9083 2.90229C23.9083 2.46873 23.7874 2.14363 23.5414 1.92685C23.2996 1.71007 22.9244 1.60156 22.4241 1.60156C21.7405 1.60156 21.2277 1.78083 20.9067 2.13101C20.5732 2.48954 20.4106 2.93561 20.4106 3.49424C20.4106 3.9278 20.5356 4.253 20.7774 4.46561C21.0276 4.68656 21.3903 4.79069 21.8947 4.79069ZM22.4492 5.69958H20.8233C20.4814 5.69958 20.198 5.94143 20.1396 6.2791L18.6847 15.5088C18.6555 15.7089 18.7097 15.9132 18.8431 16.0633C18.9723 16.2175 19.1641 16.3051 19.3642 16.3051H20.9901C21.3319 16.3051 21.6154 16.0592 21.6737 15.7215L23.1287 6.49589C23.1579 6.29579 23.1037 6.09148 22.9703 5.9414C22.841 5.79132 22.6534 5.69958 22.4492 5.69958ZM17.7467 1.99768C17.8759 2.15193 17.9384 2.35207 17.9051 2.55217L16.3042 12.7659C16.2876 12.941 16.2834 13.0492 16.2834 13.1201C16.2834 13.4619 16.3501 13.6996 16.4793 13.8205C16.6002 13.9331 16.867 13.9956 16.9129 14.0039C17.0588 14.0247 17.1964 14.0999 17.3006 14.2083C17.4382 14.3542 17.509 14.5541 17.4924 14.7542L17.4007 15.6714C17.3798 15.8674 17.2964 16.0299 17.1755 16.1174C17.063 16.1925 16.9254 16.2634 16.7503 16.3301C16.5752 16.3969 16.0833 16.5386 15.7414 16.5386C14.8785 16.5386 14.2115 16.3384 13.7571 15.9424C13.3068 15.5505 13.0775 14.9793 13.0775 14.2414C13.0775 14.0413 13.0984 13.8206 13.1401 13.5829C13.1526 13.4829 14.8785 2.46463 14.8993 2.34373C14.9535 2.00606 15.2412 1.75993 15.583 1.75993H17.2256C17.4257 1.75576 17.6133 1.84344 17.7467 1.99768Z" fill="#2A55E5"/>
  <path d="M65.0442 23.6248C65.0442 23.6248 66.0751 24.1373 66.5837 24.3549C67.0785 24.566 67.1345 25.3577 66.59 25.6251C66.0455 25.8925 65.8954 25.936 65.8954 25.936C65.8954 25.936 65.981 25.7142 65.9694 25.4998C65.9345 25.1178 64.8095 24.808 64.0641 24.6244C64.0641 24.6244 63.4921 22.8226 63.233 22.3207C62.9729 21.8155 62.4453 21.6055 62.4453 21.6055L63.6919 21.6224C63.6919 21.6224 64.1212 21.6012 64.3115 22.0628C64.5007 22.5265 65.0442 23.6248 65.0442 23.6248Z" fill="url(#paint0_linear_12090_23950)"/>
  <path d="M64.9718 27.5721C64.9718 27.5721 64.4664 28.595 64.2444 29.1182C64.0329 29.6148 63.2293 29.671 62.9629 29.1246C62.6964 28.5781 62.6689 28.4815 62.6689 28.4815C62.6689 28.4815 62.8297 28.5133 63.0855 28.5017C63.4662 28.4666 63.7929 27.3376 63.9758 26.5895C63.9758 26.5895 65.7701 26.0143 66.2712 25.7554C66.7745 25.4944 66.9828 24.9648 66.9828 24.9648L66.9659 26.4027C66.9659 26.4027 66.987 26.6478 66.5271 26.8388C66.0661 27.0277 64.9718 27.5721 64.9718 27.5721Z" fill="url(#paint1_linear_12090_23950)"/>
  <path d="M61.0041 27.5001C61.0041 27.5001 59.9785 26.9907 59.4636 26.77C58.9688 26.5588 58.9127 25.7662 59.4572 25.4998C60.0018 25.2324 60.2206 25.1836 60.2206 25.1836C60.2206 25.1836 60.079 25.4107 60.1138 25.6664C60.1498 26.0495 61.2388 26.3169 61.9821 26.5004C61.9821 26.5004 62.5763 28.2917 62.8132 28.8042C63.1029 29.4281 63.5829 29.5237 63.5829 29.5237L62.1693 29.5024C62.1693 29.5024 61.925 29.5237 61.7347 29.0621C61.5465 28.5983 61.0041 27.5001 61.0041 27.5001Z" fill="url(#paint2_linear_12090_23950)"/>
  <path d="M61.089 23.5458C61.089 23.5458 61.5965 22.5176 61.8164 21.9998C62.0268 21.5031 62.8156 21.448 63.082 21.9934C63.3485 22.5399 63.3738 22.6386 63.3738 22.6386C63.3738 22.6386 63.173 22.6417 62.9604 22.6534C62.5787 22.6895 62.2679 23.7825 62.086 24.5295C62.086 24.5295 60.297 25.1163 59.7906 25.3636C59.0938 25.7031 59.0674 26.1382 59.0674 26.1382L59.0959 24.7173C59.0959 24.7173 59.0748 24.4722 59.5347 24.2812C59.9947 24.0902 61.089 23.5458 61.089 23.5458Z" fill="url(#paint3_linear_12090_23950)"/>
  <path d="M6.01157 28.5202H1.30176L2.33607 21.9912H7.04588L6.85195 23.2563H3.63819L3.42579 24.6231H6.2055L6.01157 25.8329H3.23186L3.01022 27.2551H6.21474L6.01157 28.5202Z" fill="#9E9E9E"/>
  <path d="M11.521 28.5202H9.8957L9.23078 27.1442L8.06718 28.5202H6.53419L8.60281 26.0915L7.36533 23.6534H8.99991L9.64636 25.0849L10.8284 23.6534H12.3153L10.2466 26.0638L11.521 28.5202Z" fill="#9E9E9E"/>
  <path d="M15.7609 23.5519C16.2473 23.5519 16.6229 23.7304 16.8876 24.0875C17.1523 24.4446 17.2847 24.9094 17.2847 25.482C17.2847 25.8575 17.2324 26.2207 17.1277 26.5717C17.0292 26.9164 16.8722 27.2489 16.6567 27.569C16.4412 27.8892 16.1334 28.1478 15.7332 28.3448C15.3331 28.5356 14.8652 28.6311 14.3295 28.6311C14.1202 28.6311 13.8585 28.6095 13.5446 28.5664L13.4891 29.1113L13.2767 30.4042H11.8453L12.9166 23.6534H14.0432L14.0063 24.6878C14.4619 23.9305 15.0468 23.5519 15.7609 23.5519ZM15.2992 24.7893C15.1083 24.7893 14.8867 24.9125 14.6343 25.1587C14.388 25.405 14.1664 25.6944 13.9694 26.0268L13.7662 27.3289C13.9817 27.3967 14.2279 27.4305 14.505 27.4305C14.9483 27.4305 15.2776 27.2551 15.4931 26.9041C15.7148 26.547 15.8256 26.153 15.8256 25.7221C15.8256 25.4512 15.7794 25.2295 15.6871 25.0572C15.5947 24.8786 15.4654 24.7893 15.2992 24.7893Z" fill="#9E9E9E"/>
  <path d="M20.278 27.3289L20.1672 28.4187C19.8286 28.5541 19.4807 28.6218 19.1237 28.6218C18.7235 28.6218 18.4156 28.5295 18.2002 28.3448C17.9908 28.1601 17.8862 27.8953 17.8862 27.5506C17.8862 27.4582 17.8954 27.3566 17.9139 27.2458L18.7727 21.7695H20.2134L19.4099 26.8857C19.4038 26.9595 19.4007 27.0119 19.4007 27.0427C19.4007 27.1904 19.4253 27.2889 19.4746 27.3382C19.53 27.3874 19.6377 27.412 19.7978 27.412C19.9271 27.412 20.0872 27.3843 20.278 27.3289Z" fill="#9E9E9E"/>
  <path d="M23.0072 28.6126C22.3423 28.6003 21.8251 28.4217 21.4557 28.077C21.0863 27.7322 20.9016 27.2489 20.9016 26.6271C20.9016 25.7159 21.1602 24.9771 21.6774 24.4107C22.2007 23.8381 22.8964 23.5519 23.7645 23.5519C24.454 23.5519 24.9866 23.7242 25.3621 24.069C25.7438 24.4076 25.9347 24.894 25.9347 25.5281C25.9347 26.4701 25.6761 27.2212 25.1589 27.7814C24.6418 28.3355 23.9245 28.6126 23.0072 28.6126ZM23.1642 27.412C23.5705 27.412 23.8938 27.2612 24.1339 26.9595C24.374 26.6517 24.494 26.2331 24.494 25.7036C24.494 25.0633 24.2201 24.7432 23.6721 24.7432C23.2719 24.7432 22.9487 24.894 22.7025 25.1957C22.4562 25.4973 22.3331 25.9191 22.3331 26.4609C22.3331 26.7872 22.4008 27.0273 22.5362 27.1812C22.6778 27.3289 22.8872 27.4059 23.1642 27.412Z" fill="#9E9E9E"/>
  <path d="M26.3779 28.5202L27.1444 23.6534H28.2803L28.2248 24.8263C28.7235 23.9767 29.3453 23.5519 30.0903 23.5519H30.1734L29.8964 25.0202C29.5824 25.0202 29.2715 25.1187 28.9636 25.3157C28.6558 25.5066 28.4034 25.7405 28.2064 26.0176L27.8185 28.5202H26.3779Z" fill="#9E9E9E"/>
  <path d="M34.9464 25.0202C34.8971 26.153 34.0506 26.7194 32.4068 26.7194C32.1728 26.7194 31.945 26.7102 31.7234 26.6917C31.7542 26.9749 31.8527 27.1781 32.0189 27.3012C32.1913 27.4244 32.4838 27.4859 32.8962 27.4859C33.3826 27.4859 33.8844 27.3967 34.4015 27.2181L34.1799 28.3909C33.6627 28.551 33.1086 28.6311 32.5176 28.6311C31.6926 28.6311 31.1047 28.4556 30.7537 28.1047C30.409 27.7537 30.2366 27.2458 30.2366 26.5809C30.2366 25.7313 30.489 25.0171 30.9939 24.4384C31.5049 23.8597 32.1913 23.5703 33.0532 23.5703C33.6997 23.5703 34.1768 23.7027 34.4847 23.9674C34.7925 24.226 34.9464 24.5769 34.9464 25.0202ZM31.7973 25.7867C31.8589 25.799 31.9574 25.8052 32.0928 25.8052C33.0348 25.8052 33.5058 25.5866 33.5058 25.1495C33.5058 25.0079 33.4596 24.894 33.3672 24.8078C33.2749 24.7155 33.1364 24.6693 32.9517 24.6693C32.6561 24.6693 32.4099 24.7678 32.2129 24.9648C32.022 25.1618 31.8835 25.4358 31.7973 25.7867Z" fill="#9E9E9E"/>
  <path d="M39.0006 28.5202H37.4953L38.5296 21.9912H41.2078C42.0266 21.9912 42.6023 22.142 42.9347 22.4437C43.2733 22.7454 43.4426 23.1702 43.4426 23.7181C43.4426 23.9951 43.418 24.2537 43.3688 24.4938C43.3195 24.7278 43.2271 24.9679 43.0917 25.2141C42.9624 25.4543 42.79 25.6605 42.5746 25.8329C42.3652 25.9991 42.0851 26.1376 41.7342 26.2485C41.3832 26.3531 40.9769 26.4054 40.5152 26.4054H39.3423L39.0006 28.5202ZM39.527 25.2141H40.5706C41.4448 25.2141 41.8819 24.7986 41.8819 23.9674C41.8819 23.7089 41.8081 23.5149 41.6603 23.3856C41.5125 23.2502 41.257 23.1825 40.8938 23.1825H39.8502L39.527 25.2141Z" fill="#FFC200"/>
  <path d="M46.0276 27.3289L45.9168 28.4187C45.5782 28.5541 45.2303 28.6218 44.8732 28.6218C44.473 28.6218 44.1652 28.5295 43.9497 28.3448C43.7404 28.1601 43.6357 27.8953 43.6357 27.5506C43.6357 27.4582 43.645 27.3566 43.6635 27.2458L44.5223 21.7695H45.9629L45.1595 26.8857C45.1534 26.9595 45.1503 27.0119 45.1503 27.0427C45.1503 27.1904 45.1749 27.2889 45.2242 27.3382C45.2796 27.3874 45.3873 27.412 45.5474 27.412C45.6767 27.412 45.8367 27.3843 46.0276 27.3289Z" fill="#FFC200"/>
  <path d="M51.7852 23.6534L51.0095 28.5202H49.8828L49.9197 27.4859C49.4087 28.2432 48.7531 28.6218 47.9527 28.6218C47.5217 28.6218 47.1985 28.5018 46.983 28.2617C46.7675 28.0216 46.6598 27.7014 46.6598 27.3012C46.6598 27.135 46.6721 26.9872 46.6967 26.858L47.2139 23.6534H48.6453L48.1928 26.4978C48.1743 26.5901 48.1651 26.6887 48.1651 26.7933C48.1651 27.1566 48.2944 27.3382 48.553 27.3382C48.7561 27.3382 48.9839 27.2243 49.2363 26.9965C49.4888 26.7687 49.7258 26.4824 49.9474 26.1376L50.3445 23.6534H51.7852Z" fill="#FFC200"/>
  <path d="M51.9902 28.3817L52.2396 27.1812C52.2826 27.2304 52.4766 27.292 52.8214 27.3659C53.1661 27.4336 53.4893 27.4675 53.791 27.4675C54.4128 27.4675 54.7237 27.3135 54.7237 27.0057C54.7237 26.8949 54.6437 26.8056 54.4836 26.7379C54.3297 26.6702 54.1389 26.6148 53.9111 26.5717C53.6894 26.5224 53.4647 26.4609 53.2369 26.387C53.0153 26.3069 52.8244 26.1746 52.6644 25.9899C52.5104 25.799 52.4335 25.5589 52.4335 25.2696C52.4335 24.7155 52.6336 24.2907 53.0338 23.9951C53.4339 23.6996 54.0373 23.5519 54.8438 23.5519C55.1085 23.5519 55.3671 23.5703 55.6195 23.6073C55.872 23.6381 56.0628 23.6719 56.1921 23.7089C56.3275 23.7458 56.4137 23.7766 56.4507 23.8012L56.2106 24.9648C56.1059 24.8971 55.9151 24.8386 55.638 24.7893C55.361 24.7401 55.0931 24.7155 54.8346 24.7155C54.1943 24.7155 53.8741 24.8632 53.8741 25.1587C53.8741 25.2634 53.9511 25.3465 54.105 25.4081C54.2651 25.4696 54.4559 25.5251 54.6776 25.5743C54.8992 25.6174 55.1208 25.679 55.3425 25.759C55.5703 25.8329 55.7611 25.9653 55.9151 26.1561C56.0751 26.3408 56.1552 26.5778 56.1552 26.8672C56.1552 27.4644 55.9397 27.9046 55.5087 28.1878C55.0839 28.471 54.499 28.6126 53.7541 28.6126C53.4709 28.6126 53.1846 28.5941 52.8952 28.5572C52.6059 28.5202 52.3873 28.4864 52.2396 28.4556C52.0979 28.4187 52.0148 28.394 51.9902 28.3817Z" fill="#FFC200"/>
  <defs>
    <linearGradient id="paint0_linear_12090_23950" x1="62.4721" y1="21.5786" x2="66.589" y2="25.6807" gradientUnits="userSpaceOnUse">
      <stop offset="0.0411" stop-color="#FFF300"/>
      <stop offset="0.2727" stop-color="#FFF300"/>
      <stop offset="0.5022" stop-color="#FFE500"/>
      <stop offset="0.8126" stop-color="#F2A930"/>
    </linearGradient>
    <linearGradient id="paint1_linear_12090_23950" x1="62.9097" y1="29.125" x2="67.0337" y2="25.016" gradientUnits="userSpaceOnUse">
      <stop offset="0.1874" stop-color="#F2A930"/>
      <stop offset="0.4978" stop-color="#FFE500"/>
      <stop offset="0.7273" stop-color="#FFF300"/>
      <stop offset="0.9589" stop-color="#FFF300"/>
    </linearGradient>
    <linearGradient id="paint2_linear_12090_23950" x1="59.4636" y1="25.4386" x2="63.5733" y2="29.5334" gradientUnits="userSpaceOnUse">
      <stop offset="0.1874" stop-color="#F2A930"/>
      <stop offset="0.4978" stop-color="#FFE500"/>
      <stop offset="0.7273" stop-color="#FFF300"/>
      <stop offset="0.9589" stop-color="#FFF300"/>
    </linearGradient>
    <linearGradient id="paint3_linear_12090_23950" x1="59.0453" y1="26.1162" x2="63.1594" y2="22.0169" gradientUnits="userSpaceOnUse">
      <stop offset="0.0411" stop-color="#FFF300"/>
      <stop offset="0.2727" stop-color="#FFF300"/>
      <stop offset="0.5022" stop-color="#FFE500"/>
      <stop offset="0.8126" stop-color="#F2A930"/>
    </linearGradient>
  </defs>
</svg>
