<?xml version="1.0" encoding="utf-8"?>
<!-- Generator: Adobe Illustrator 27.8.0, SVG Export Plug-In . SVG Version: 6.00 Build 0)  -->
<svg version="1.1" id="Layer_1" xmlns="http://www.w3.org/2000/svg" xmlns:xlink="http://www.w3.org/1999/xlink" x="0px" y="0px"
	 viewBox="0 0 150 44.4" style="enable-background:new 0 0 150 44.4;" xml:space="preserve">
<style type="text/css">
	.st0{fill-rule:evenodd;clip-rule:evenodd;fill:#FBFBFB;}
	.st1{fill-rule:evenodd;clip-rule:evenodd;}
	.st2{fill-rule:evenodd;clip-rule:evenodd;fill:#CCCED3;}
	.st3{fill-rule:evenodd;clip-rule:evenodd;fill:#010202;}
	.st4{fill:none;stroke:#010202;stroke-width:0.2;}
	.st5{fill:#FFFFFF;}
	.st6{fill-rule:evenodd;clip-rule:evenodd;fill:#FFFFFF;}
</style>
<path class="st0" d="M144.4,44.4H5.6c-3.1,0-5.6-2.5-5.6-5.6V5.6C0,2.5,2.5,0,5.6,0h138.9c3.1,0,5.6,2.5,5.6,5.6v33.3
	C150,41.9,147.5,44.4,144.4,44.4"/>
<g>
	<ellipse class="st1" cx="62.6" cy="29.5" rx="4.7" ry="4.7"/>
	<ellipse class="st1" cx="73" cy="29.5" rx="4.7" ry="4.7"/>
</g>
<path class="st2" d="M144.4,0H5.6C2.5,0,0,2.5,0,5.6v33.3c0,3.1,2.5,5.6,5.6,5.6h138.9c3.1,0,5.6-2.5,5.6-5.6V5.6
	C150,2.5,147.5,0,144.4,0 M144.4,0.9c2.6,0,4.7,2.1,4.7,4.7v33.3c0,2.6-2.1,4.7-4.7,4.7H5.6c-2.6,0-4.7-2.1-4.7-4.7V5.6
	C0.9,3,3,0.9,5.6,0.9H144.4"/>
<path class="st3" d="M52.7,11.4c0,0.9-0.3,1.7-0.8,2.2c-0.6,0.7-1.4,1-2.4,1c-1,0-1.8-0.3-2.5-1c-0.7-0.7-1-1.5-1-2.5
	c0-1,0.3-1.8,1-2.5c0.7-0.7,1.5-1,2.5-1c0.5,0,0.9,0.1,1.4,0.3c0.4,0.2,0.8,0.4,1,0.7l-0.6,0.6c-0.4-0.5-1-0.8-1.8-0.8
	c-0.7,0-1.3,0.2-1.8,0.7c-0.5,0.5-0.8,1.1-0.8,1.9s0.3,1.4,0.8,1.9c0.5,0.5,1.1,0.7,1.8,0.7c0.7,0,1.4-0.2,1.9-0.7
	c0.3-0.3,0.5-0.8,0.6-1.3h-2.4v-0.8h3.2C52.7,11.1,52.7,11.2,52.7,11.4"/>
<path class="st4" d="M52.7,11.4c0,0.9-0.3,1.7-0.8,2.2c-0.6,0.7-1.4,1-2.4,1c-1,0-1.8-0.3-2.5-1c-0.7-0.7-1-1.5-1-2.5
	c0-1,0.3-1.8,1-2.5c0.7-0.7,1.5-1,2.5-1c0.5,0,0.9,0.1,1.4,0.3c0.4,0.2,0.8,0.4,1,0.7l-0.6,0.6c-0.4-0.5-1-0.8-1.8-0.8
	c-0.7,0-1.3,0.2-1.8,0.7c-0.5,0.5-0.8,1.1-0.8,1.9s0.3,1.4,0.8,1.9c0.5,0.5,1.1,0.7,1.8,0.7c0.7,0,1.4-0.2,1.9-0.7
	c0.3-0.3,0.5-0.8,0.6-1.3h-2.4v-0.8h3.2C52.7,11.1,52.7,11.2,52.7,11.4L52.7,11.4z"/>
<path class="st3" d="M57.8,8.6h-3v2.1h2.7v0.8h-2.7v2.1h3v0.8h-3.9V7.8h3.9V8.6z"/>
<path class="st4" d="M57.8,8.6h-3v2.1h2.7v0.8h-2.7v2.1h3v0.8h-3.9V7.8h3.9V8.6z"/>
<path class="st3" d="M61.4,14.4h-0.9V8.6h-1.9V7.8h4.6v0.8h-1.9L61.4,14.4L61.4,14.4z"/>
<path class="st4" d="M61.4,14.4h-0.9V8.6h-1.9V7.8h4.6v0.8h-1.9L61.4,14.4L61.4,14.4z"/>
<path class="st3" d="M66.6,14.4h0.9V7.8h-0.9V14.4z"/>
<path class="st4" d="M66.6,14.4h0.9V7.8h-0.9V14.4z"/>
<path class="st3" d="M71.3,14.4h-0.9V8.6h-1.9V7.8h4.6v0.8h-1.9L71.3,14.4L71.3,14.4z"/>
<path class="st4" d="M71.3,14.4h-0.9V8.6h-1.9V7.8h4.6v0.8h-1.9L71.3,14.4L71.3,14.4z"/>
<path class="st3" d="M77.5,13c0.5,0.5,1.1,0.7,1.8,0.7c0.7,0,1.3-0.2,1.8-0.7c0.5-0.5,0.7-1.1,0.7-1.9s-0.2-1.4-0.7-1.9
	c-0.5-0.5-1.1-0.7-1.8-0.7c-0.7,0-1.3,0.3-1.8,0.7c-0.5,0.5-0.7,1.1-0.7,1.9S77,12.5,77.5,13 M81.8,13.6c-0.7,0.7-1.5,1-2.4,1
	c-1,0-1.8-0.3-2.4-1c-0.7-0.7-1-1.5-1-2.5s0.3-1.8,1-2.5c0.7-0.7,1.5-1,2.4-1c1,0,1.8,0.3,2.4,1s1,1.5,1,2.5
	C82.8,12.1,82.4,12.9,81.8,13.6"/>
<path class="st4" d="M77.5,13c0.5,0.5,1.1,0.7,1.8,0.7c0.7,0,1.3-0.2,1.8-0.7c0.5-0.5,0.7-1.1,0.7-1.9s-0.2-1.4-0.7-1.9
	c-0.5-0.5-1.1-0.7-1.8-0.7c-0.7,0-1.3,0.3-1.8,0.7c-0.5,0.5-0.7,1.1-0.7,1.9S77,12.5,77.5,13z M81.8,13.6c-0.7,0.7-1.5,1-2.4,1
	c-1,0-1.8-0.3-2.4-1c-0.7-0.7-1-1.5-1-2.5s0.3-1.8,1-2.5c0.7-0.7,1.5-1,2.4-1c1,0,1.8,0.3,2.4,1s1,1.5,1,2.5
	C82.8,12.1,82.4,12.9,81.8,13.6L81.8,13.6z"/>
<path class="st3" d="M84,14.4V7.8h1l3.2,5.2h0l0-1.3V7.8h0.9v6.7h-0.9L84.8,9h0l0,1.3v4.2H84z"/>
<path class="st4" d="M84,14.4V7.8h1l3.2,5.2h0l0-1.3V7.8h0.9v6.7h-0.9L84.8,9h0l0,1.3v4.2H84z"/>
<rect x="116.1" y="20" class="st1" width="2.1" height="13.9"/>
<polygon class="st1" points="134.7,25 132.4,31.1 132.3,31.1 129.8,25 127.6,25 131.3,33.5 129.2,38.1 131.3,38.1 137,25 "/>
<path class="st1" d="M123.2,24.7c-1.5,0-3.1,0.7-3.7,2.1l1.8,0.8c0.4-0.8,1.1-1,1.9-1c1.1,0,2.2,0.6,2.2,1.8v0.1
	c-0.4-0.2-1.2-0.5-2.2-0.5c-2,0-4,1.1-4,3.1c0,1.9,1.6,3.1,3.5,3.1c1.4,0,2.2-0.6,2.6-1.4h0.1v1.1h2v-5.3
	C127.4,26.1,125.6,24.7,123.2,24.7z"/>
<path class="st1" d="M110.4,20h-5v13.9h2.1v-5.3h2.9c2.3,0,4.6-1.7,4.6-4.3C114.9,21.7,112.7,20,110.4,20L110.4,20z"/>
<path class="st1" d="M85.7,25.8L85.7,25.8c-0.5-0.6-1.4-1.1-2.6-1.1c-2.4,0-4.5,2.1-4.5,4.7c0,2.6,2.2,4.7,4.5,4.7
	c1.1,0,2-0.5,2.5-1.1h0.1v0.7c0,1.8-1,2.8-2.5,2.8c-1.3,0-2.1-0.9-2.4-1.7l-1.8,0.8c0.5,1.3,1.9,2.8,4.2,2.8c2.4,0,4.5-1.4,4.5-4.9
	V25h-2V25.8L85.7,25.8z"/>
<polygon class="st1" points="89.1,33.9 91.1,33.9 91.1,20 89.1,20 "/>
<path class="st1" d="M100.6,27.8c-0.4-1.1-1.6-3-4-3c-2.4,0-4.5,1.9-4.5,4.7c0,2.6,2,4.7,4.7,4.7c2.2,0,3.4-1.3,3.9-2.1L99.2,31
	c-0.5,0.8-1.3,1.3-2.3,1.3c-1.1,0-1.8-0.5-2.3-1.4l6.3-2.6L100.6,27.8L100.6,27.8z"/>
<path class="st1" d="M50.3,26.2v2h4.8c-0.1,1.1-0.5,2-1.1,2.5c-0.7,0.7-1.8,1.5-3.7,1.5c-3,0-5.3-2.4-5.3-5.3c0-3,2.3-5.3,5.3-5.3
	c1.6,0,2.8,0.6,3.6,1.4l1.4-1.4c-1.2-1.1-2.8-2-5-2c-4,0-7.4,3.3-7.4,7.3s3.4,7.3,7.4,7.3c2.2,0,3.8-0.7,5.1-2.1
	c1.3-1.3,1.7-3.2,1.7-4.7c0-0.5,0-0.9-0.1-1.3L50.3,26.2L50.3,26.2z"/>
<g>
	<path class="st1" d="M24.8,22.2L11.3,8.8c-0.2,0.3-0.2,0.7-0.2,1.2v24.6c0,0.5,0.1,0.9,0.3,1.2L24.8,22.2z"/>
	<path class="st1" d="M11.4,8.7C11.4,8.7,11.4,8.7,11.4,8.7C11.4,8.7,11.4,8.7,11.4,8.7z"/>
	<path class="st1" d="M25.6,21.4l4.1-4.1l-15.8-9c-0.4-0.3-0.9-0.4-1.2-0.4c-0.2,0-0.4,0-0.5,0.1L25.6,21.4z"/>
	<path class="st1" d="M35.6,20.6l-4.8-2.8l-4.4,4.4l4.4,4.3l4.8-2.8C37.1,22.9,37.1,21.5,35.6,20.6z"/>
	<path class="st1" d="M25.6,23L12.2,36.4c0.5,0.2,1.1,0.1,1.7-0.3l15.8-9L25.6,23z"/>
	<path class="st1" d="M11.4,35.7c0.1,0.1,0.1,0.2,0.2,0.3C11.5,35.9,11.4,35.8,11.4,35.7z"/>
</g>
<g>
	<path class="st5" d="M62.6,26.6c-1.4,0-2.7,1.2-2.7,2.9c0,1.7,1.2,2.9,2.7,2.9s2.7-1.2,2.7-2.9C65.3,27.8,64,26.6,62.6,26.6z"/>
	<path class="st5" d="M73,32.4L73,32.4L73,32.4z"/>
	<path class="st5" d="M75.6,29.5c0-1.7-1.2-2.9-2.7-2.9c-1.4,0-2.7,1.2-2.7,2.9c0,1.7,1.2,2.9,2.7,2.9
		C74.4,32.4,75.6,31.2,75.6,29.5z"/>
</g>
<path class="st0" d="M83.3,32.4c-1.4,0-2.6-1.2-2.6-2.8c0-1.7,1.2-2.9,2.6-2.9c1.4,0,2.5,1.2,2.5,2.9C85.8,31.2,84.7,32.4,83.3,32.4
	L83.3,32.4z"/>
<path class="st6" d="M110.4,26.7h-2.9V22h2.9c1.6,0,2.4,1.3,2.4,2.4C112.8,25.4,112,26.7,110.4,26.7z"/>
<path class="st6" d="M94.2,29.3c-0.1-1.8,1.4-2.8,2.5-2.8c0.8,0,1.5,0.4,1.8,1L94.2,29.3L94.2,29.3z"/>
<path class="st0" d="M123,32.4c-0.7,0-1.6-0.3-1.6-1.2c0-1.1,1.2-1.5,2.2-1.5c0.9,0,1.3,0.2,1.9,0.5C125.3,31.4,124.2,32.4,123,32.4
	z"/>
</svg>
