<?xml version="1.0" encoding="utf-8"?>
<!-- Generator: Adobe Illustrator 27.8.0, SVG Export Plug-In . SVG Version: 6.00 Build 0)  -->
<svg version="1.1" id="Layer_1" xmlns="http://www.w3.org/2000/svg" xmlns:xlink="http://www.w3.org/1999/xlink" x="0px" y="0px"
	 viewBox="0 0 150 44.4" style="enable-background:new 0 0 150 44.4;" xml:space="preserve">
<style type="text/css">
	.st0{fill:#CCCED3;}
	.st1{fill:#FBFBFB;}
	.st2{fill:#010202;}
</style>
<g>
	<path class="st0" d="M122.3,0H10.6c-0.4,0-0.8,0-1.2,0C9,0,8.7,0,8.4,0C7.6,0,6.9,0.1,6.1,0.2C5.4,0.3,4.7,0.6,4,0.9
		C3.4,1.3,2.7,1.7,2.2,2.2C1.7,2.7,1.2,3.4,0.9,4C0.6,4.7,0.3,5.4,0.2,6.1C0.1,6.9,0,7.6,0,8.4c0,0.3,0,0.7,0,1v25.7
		c0,0.3,0,0.7,0,1c0,0.7,0.1,1.5,0.2,2.2c0.1,0.7,0.4,1.5,0.7,2.1c0.3,0.7,0.8,1.3,1.3,1.8c0.5,0.5,1.1,1,1.8,1.3
		c0.7,0.3,1.4,0.6,2.1,0.7c0.7,0.1,1.5,0.2,2.2,0.2c0.3,0,0.7,0,1,0c0.4,0,0.8,0,1.2,0h128.8c0.4,0,0.8,0,1.2,0c0.3,0,0.7,0,1,0
		c0.7,0,1.5-0.1,2.2-0.2c0.7-0.1,1.5-0.4,2.1-0.7c0.7-0.3,1.3-0.8,1.8-1.3c0.5-0.5,1-1.1,1.3-1.8c0.3-0.7,0.6-1.4,0.7-2.1
		c0.1-0.7,0.2-1.5,0.2-2.2c0-0.3,0-0.7,0-1c0-0.4,0-0.8,0-1.2V10.6c0-0.4,0-0.8,0-1.2c0-0.3,0-0.7,0-1c0-0.7-0.1-1.5-0.2-2.2
		c-0.1-0.7-0.4-1.4-0.7-2.1c-0.7-1.3-1.8-2.4-3.1-3.1c-0.7-0.3-1.4-0.6-2.1-0.7c-0.7-0.1-1.5-0.2-2.2-0.2c-0.3,0-0.7,0-1,0
		c-0.4,0-0.8,0-1.2,0L122.3,0L122.3,0z"/>
	<path class="st1" d="M9.4,43.5c-0.3,0-0.7,0-1,0c-0.7,0-1.4-0.1-2.1-0.2C5.7,43.2,5,43,4.5,42.7c-0.6-0.3-1.1-0.7-1.6-1.1
		c-0.5-0.5-0.8-1-1.1-1.6c-0.3-0.6-0.5-1.2-0.6-1.8C1.1,37.5,1,36.8,1,36.1c0-0.2,0-1,0-1V9.4c0,0,0-0.8,0-1C1,7.7,1.1,7,1.2,6.3
		c0.1-0.6,0.3-1.3,0.6-1.8c0.3-0.6,0.7-1.1,1.1-1.6c0.5-0.5,1-0.8,1.6-1.1C5,1.5,5.7,1.3,6.3,1.2C7,1.1,7.7,1,8.4,1l1,0h131.2l1,0
		c0.7,0,1.4,0.1,2.1,0.2c0.6,0.1,1.3,0.3,1.9,0.6c1.2,0.6,2.1,1.5,2.7,2.7c0.3,0.6,0.5,1.2,0.6,1.8c0.1,0.7,0.2,1.4,0.2,2.1
		c0,0.3,0,0.7,0,1c0,0.4,0,0.8,0,1.2v23.2c0,0.4,0,0.8,0,1.2c0,0.4,0,0.7,0,1c0,0.7-0.1,1.4-0.2,2.1c-0.1,0.6-0.3,1.3-0.6,1.9
		c-0.3,0.6-0.7,1.1-1.1,1.5c-0.5,0.5-1,0.8-1.6,1.1c-0.6,0.3-1.2,0.5-1.9,0.6c-0.7,0.1-1.4,0.2-2.1,0.2c-0.3,0-0.7,0-1,0l-1.2,0
		L9.4,43.5L9.4,43.5z"/>
	<g>
		<path class="st2" d="M36.3,22.1c0-2,1.1-3.8,2.7-4.8c-1.1-1.5-2.8-2.4-4.6-2.5c-1.9-0.2-3.8,1.2-4.8,1.2c-1,0-2.5-1.1-4.2-1.1
			c-2.2,0.1-4.1,1.3-5.2,3.2c-2.2,3.9-0.6,9.6,1.6,12.7c1.1,1.5,2.3,3.2,4,3.2c1.6-0.1,2.2-1,4.1-1c1.9,0,2.5,1,4.1,1
			c1.7,0,2.8-1.5,3.8-3.1c0.8-1.1,1.4-2.3,1.8-3.6C37.6,26.3,36.3,24.3,36.3,22.1z M33.2,12.8c0.9-1.1,1.4-2.6,1.3-4
			c-1.4,0.1-2.8,0.8-3.7,1.9c-0.9,1.1-1.4,2.5-1.3,3.9C30.9,14.5,32.2,13.9,33.2,12.8L33.2,12.8z"/>
		<g>
			<path class="st2" d="M55.5,30.2h-5.3L49,33.9h-2.2l5-13.8h2.3l5,13.8h-2.3L55.5,30.2z M50.8,28.4H55l-2.1-6h-0.1
				C52.9,22.4,50.8,28.4,50.8,28.4z M69.8,28.8c0,3.1-1.7,5.1-4.2,5.1c-1.3,0.1-2.5-0.6-3.2-1.8h0v5h-2.1V23.8h2v1.7h0
				c0.7-1.1,1.9-1.8,3.2-1.8C68.1,23.7,69.8,25.7,69.8,28.8L69.8,28.8z M67.7,28.8c0-2-1.1-3.4-2.7-3.4c-1.6,0-2.6,1.4-2.6,3.4
				c0,2,1.1,3.4,2.6,3.4C66.6,32.2,67.7,30.9,67.7,28.8L67.7,28.8z M80.9,28.8c0,3.1-1.7,5.1-4.2,5.1c-1.3,0.1-2.5-0.6-3.2-1.8h0v5
				h-2.1V23.8h2v1.7h0c0.7-1.1,1.9-1.8,3.2-1.8C79.2,23.7,80.9,25.7,80.9,28.8L80.9,28.8z M78.8,28.8c0-2-1.1-3.4-2.7-3.4
				c-1.6,0-2.6,1.4-2.6,3.4c0,2,1.1,3.4,2.6,3.4C77.7,32.2,78.8,30.9,78.8,28.8L78.8,28.8z M88.2,30c0.2,1.4,1.5,2.3,3.3,2.3
				c1.7,0,3-0.9,3-2.1c0-1.1-0.8-1.7-2.5-2.2l-1.8-0.4c-2.5-0.6-3.7-1.8-3.7-3.7c0-2.4,2.1-4,5-4c2.9,0,4.9,1.6,5,4h-2.1
				c-0.1-1.4-1.3-2.2-2.9-2.2c-1.7,0-2.8,0.8-2.8,2.1c0,1,0.7,1.5,2.5,2l1.5,0.4c2.8,0.7,4,1.8,4,3.8c0,2.6-2.1,4.2-5.3,4.2
				c-3.1,0-5.1-1.6-5.3-4.1C86.1,30,88.2,30,88.2,30z M101.1,21.4v2.4h1.9v1.6h-1.9V31c0,0.9,0.4,1.3,1.2,1.3c0.2,0,0.5,0,0.7,0v1.6
				c-0.4,0.1-0.8,0.1-1.1,0.1c-2,0-2.8-0.8-2.8-2.7v-5.8h-1.5v-1.6H99v-2.4H101.1L101.1,21.4z M104.1,28.8c0-3.2,1.9-5.2,4.8-5.2
				c2.9,0,4.8,2,4.8,5.2c0,3.2-1.8,5.2-4.8,5.2C106,34,104.1,32,104.1,28.8z M111.6,28.8c0-2.2-1-3.5-2.7-3.5
				c-1.7,0-2.7,1.3-2.7,3.5c0,2.2,1,3.4,2.7,3.4C110.6,32.3,111.6,31,111.6,28.8L111.6,28.8z M115.4,23.8h2v1.7h0
				c0.3-1.1,1.3-1.9,2.4-1.8c0.2,0,0.5,0,0.7,0.1v1.9c-0.3-0.1-0.6-0.1-0.9-0.1c-0.6,0-1.2,0.2-1.6,0.7c-0.4,0.4-0.6,1-0.5,1.7v6
				h-2.1L115.4,23.8L115.4,23.8z M130,30.9c-0.3,1.8-2.1,3.1-4.3,3.1c-2.9,0-4.7-2-4.7-5.1c0-3.2,1.8-5.2,4.7-5.2
				c2.8,0,4.5,1.9,4.5,5v0.7h-7.1v0.1c-0.1,0.7,0.2,1.5,0.7,2c0.5,0.5,1.2,0.8,2,0.8c1,0.1,1.9-0.5,2.3-1.4H130z M123.1,27.9h5
				c0-0.7-0.2-1.3-0.7-1.8c-0.5-0.5-1.1-0.8-1.8-0.7c-0.7,0-1.3,0.3-1.8,0.7C123.3,26.6,123.1,27.2,123.1,27.9z"/>
		</g>
	</g>
	<g>
		<path class="st2" d="M50.6,9.7c0.9-0.1,1.7,0.3,2.3,0.9c0.6,0.6,0.9,1.5,0.8,2.4c0,2.1-1.1,3.3-3.1,3.3h-2.4V9.7L50.6,9.7
			L50.6,9.7z M49.2,15.4h1.2c0.6,0,1.2-0.2,1.7-0.7c0.4-0.5,0.6-1.1,0.5-1.7c0.1-0.6-0.1-1.2-0.5-1.7s-1-0.7-1.7-0.7h-1.2V15.4z
			 M54.8,13.8c-0.1-0.9,0.3-1.8,1.1-2.2c0.8-0.5,1.7-0.5,2.5,0c0.8,0.5,1.2,1.3,1.1,2.2c0.1,0.9-0.3,1.8-1.1,2.2
			c-0.8,0.5-1.7,0.5-2.5,0C55.2,15.6,54.8,14.7,54.8,13.8z M58.5,13.8c0-1.1-0.5-1.7-1.3-1.7c-0.9,0-1.3,0.6-1.3,1.7
			c0,1.1,0.5,1.7,1.3,1.7C58.1,15.6,58.5,14.9,58.5,13.8z M65.8,16.3h-1l-1-3.7h-0.1l-1,3.7h-1l-1.4-5h1l0.9,3.8h0.1l1-3.8h0.9
			l1,3.8h0.1l0.9-3.8h1L65.8,16.3z M68.4,11.3h1v0.8h0.1c0.3-0.6,0.9-0.9,1.5-0.9c0.5,0,1,0.2,1.3,0.5c0.3,0.4,0.5,0.9,0.4,1.3v3.2
			h-1v-3c0-0.8-0.3-1.2-1.1-1.2c-0.3,0-0.7,0.1-0.9,0.4c-0.2,0.2-0.3,0.6-0.3,0.9v2.9h-1L68.4,11.3L68.4,11.3z M74.2,9.4h1v7h-1V9.4
			z M76.5,13.8c-0.1-0.9,0.3-1.8,1.1-2.2c0.8-0.5,1.7-0.5,2.5,0c0.8,0.5,1.2,1.3,1.1,2.2c0.1,0.9-0.3,1.8-1.1,2.2
			c-0.8,0.5-1.7,0.5-2.5,0C76.9,15.6,76.5,14.7,76.5,13.8z M80.2,13.8c0-1.1-0.5-1.7-1.3-1.7c-0.9,0-1.3,0.6-1.3,1.7
			c0,1.1,0.5,1.7,1.3,1.7C79.8,15.6,80.2,14.9,80.2,13.8z M82.3,14.9c0-0.9,0.7-1.4,1.9-1.5l1.4-0.1v-0.4c0-0.5-0.3-0.8-1-0.8
			c-0.5,0-0.9,0.2-1,0.6h-1c0.1-0.9,0.9-1.4,2-1.4c1.3,0,2,0.6,2,1.7v3.4h-1v-0.7h-0.1c-0.3,0.5-0.9,0.8-1.5,0.8
			c-0.4,0-0.8-0.1-1.2-0.4C82.5,15.7,82.3,15.3,82.3,14.9z M85.5,14.5v-0.4l-1.2,0.1c-0.7,0-1,0.3-1,0.7c0,0.5,0.4,0.7,0.9,0.7
			c0.3,0,0.6-0.1,0.9-0.3C85.3,15.1,85.5,14.8,85.5,14.5L85.5,14.5z M87.8,13.8c0-1.6,0.8-2.6,2.1-2.6c0.6,0,1.2,0.3,1.5,0.9h0.1
			V9.4h1v7h-0.9v-0.8h-0.1c-0.3,0.6-0.9,0.9-1.6,0.9C88.6,16.4,87.8,15.4,87.8,13.8z M88.8,13.8c0,1.1,0.5,1.7,1.3,1.7
			c0.8,0,1.3-0.6,1.3-1.7c0-1-0.5-1.7-1.3-1.7C89.3,12.1,88.8,12.8,88.8,13.8z M96.5,13.8c-0.1-0.9,0.3-1.8,1.1-2.2
			c0.8-0.5,1.7-0.5,2.5,0c0.8,0.5,1.2,1.3,1.1,2.2c0.1,0.9-0.3,1.8-1.1,2.2c-0.8,0.5-1.7,0.5-2.5,0C96.9,15.6,96.5,14.7,96.5,13.8z
			 M100.3,13.8c0-1.1-0.5-1.7-1.3-1.7c-0.9,0-1.3,0.6-1.3,1.7c0,1.1,0.5,1.7,1.3,1.7C99.8,15.6,100.3,14.9,100.3,13.8z M102.6,11.3
			h1v0.8h0.1c0.3-0.6,0.9-0.9,1.5-0.9c0.5,0,1,0.2,1.3,0.5c0.3,0.4,0.5,0.9,0.4,1.3v3.2h-1v-3c0-0.8-0.3-1.2-1.1-1.2
			c-0.3,0-0.7,0.1-0.9,0.4c-0.2,0.2-0.3,0.6-0.3,0.9v2.9h-1L102.6,11.3L102.6,11.3z M112.4,10.1v1.3h1.1v0.8h-1.1v2.6
			c0,0.5,0.2,0.8,0.7,0.8c0.1,0,0.3,0,0.4,0v0.8c-0.2,0-0.4,0-0.5,0.1c-1.1,0-1.5-0.4-1.5-1.4v-2.8h-0.8v-0.8h0.8v-1.3H112.4z
			 M114.8,9.4h1v2.8h0.1c0.3-0.6,0.9-0.9,1.5-0.9c0.5,0,1,0.2,1.3,0.5c0.3,0.4,0.5,0.9,0.4,1.3v3.2h-1v-3c0-0.8-0.4-1.2-1.1-1.2
			c-0.3,0-0.7,0.1-0.9,0.3c-0.2,0.2-0.4,0.6-0.3,0.9v2.9h-1L114.8,9.4L114.8,9.4z M124.9,15c-0.3,0.9-1.2,1.6-2.2,1.4
			c-0.7,0-1.3-0.3-1.8-0.8c-0.4-0.5-0.6-1.2-0.6-1.8c-0.1-0.7,0.1-1.3,0.6-1.8c0.4-0.5,1.1-0.8,1.7-0.8c1.4,0,2.2,1,2.2,2.5v0.3
			h-3.5v0.1c0,0.4,0.1,0.7,0.3,1c0.3,0.3,0.6,0.4,1,0.4c0.5,0.1,1-0.2,1.2-0.6L124.9,15L124.9,15z M121.4,13.4h2.5
			c0-0.3-0.1-0.7-0.3-0.9c-0.2-0.2-0.6-0.4-0.9-0.4c-0.3,0-0.7,0.1-0.9,0.4C121.6,12.7,121.4,13,121.4,13.4z"/>
	</g>
</g>
</svg>
